# Blender v2.91.2 OBJ File: ''
# www.blender.org
mtllib Animation.mtl
o Cube_Cube.002
v -0.976182 -1.673775 3.140343
v -0.930313 -0.169794 4.438830
v -0.994619 -1.075866 -0.693521
v -0.996854 0.912612 -0.899704
v 1.022139 -1.663504 3.061275
v 1.068318 -0.164904 4.360400
v 1.005346 -1.072397 -0.682126
v 1.003105 0.916189 -0.888302
v -1.014100 -0.766706 1.603094
v -1.007596 1.161956 1.783265
v 0.985697 -0.765815 1.592158
v 0.992173 1.163235 1.771795
v -1.004613 1.055667 0.344391
v 0.997052 -0.932246 0.511974
v -1.002913 -0.935037 0.503298
v 0.995354 1.058470 0.353233
v -1.000740 0.982534 -0.284556
v 1.001349 -1.003285 -0.078179
v -0.998616 -1.006608 -0.088969
v 0.999223 0.985886 -0.273753
v -1.013278 -0.895471 2.373341
v 1.020472 0.735755 3.313505
v -0.978360 0.729802 3.373318
v 0.985448 -0.888370 2.310583
v -0.996872 -1.248515 2.748003
v 1.043884 0.302655 3.869385
v -0.954749 0.296159 3.941222
v 1.001619 -1.240198 2.673256
v -1.000212 1.069278 2.554315
v 0.983442 -0.766213 2.042531
v -1.016059 -0.767864 2.071657
v 0.999252 1.071481 2.524805
v -1.010598 -0.813259 1.054046
v 0.991481 1.154260 1.072866
v -1.008412 1.152801 1.074685
v 0.989307 -0.811967 1.052421
vt 0.375000 0.218750
vt 0.625000 0.218750
vt 0.625000 0.250000
vt 0.375000 0.250000
vt 0.625000 0.500000
vt 0.375000 0.500000
vt 0.375000 0.718750
vt 0.625000 0.718750
vt 0.625000 0.750000
vt 0.375000 0.750000
vt 0.625000 1.000000
vt 0.375000 1.000000
vt 0.125000 0.718750
vt 0.125000 0.750000
vt 0.875000 0.718750
vt 0.875000 0.750000
vt 0.625000 0.593750
vt 0.875000 0.593750
vt 0.875000 0.625000
vt 0.625000 0.625000
vt 0.125000 0.593750
vt 0.375000 0.593750
vt 0.375000 0.625000
vt 0.125000 0.625000
vt 0.375000 0.093750
vt 0.625000 0.093750
vt 0.625000 0.125000
vt 0.375000 0.125000
vt 0.375000 0.531250
vt 0.625000 0.531250
vt 0.625000 0.562500
vt 0.375000 0.562500
vt 0.125000 0.531250
vt 0.125000 0.562500
vt 0.875000 0.531250
vt 0.875000 0.562500
vt 0.375000 0.156250
vt 0.625000 0.156250
vt 0.625000 0.187500
vt 0.375000 0.187500
vt 0.875000 0.500000
vt 0.125000 0.500000
vt 0.375000 0.031250
vt 0.625000 0.031250
vt 0.625000 0.062500
vt 0.375000 0.062500
vt 0.625000 0.656250
vt 0.875000 0.656250
vt 0.875000 0.687500
vt 0.625000 0.687500
vt 0.125000 0.656250
vt 0.375000 0.656250
vt 0.375000 0.687500
vt 0.125000 0.687500
vt 0.375000 0.000000
vt 0.625000 0.000000
vn -1.0000 -0.0017 -0.0063
vn 0.0059 -0.1031 -0.9947
vn 0.9990 0.0070 -0.0440
vn 0.0322 -0.6545 0.7554
vn -0.0251 -0.6774 -0.7352
vn 0.0237 0.7275 0.6857
vn -0.0007 0.9999 -0.0129
vn 0.0008 -0.9964 0.0848
vn 1.0000 -0.0023 0.0025
vn -1.0000 0.0051 0.0048
vn 1.0000 0.0015 0.0065
vn 0.0009 -0.9928 0.1197
vn -0.0010 0.9933 -0.1153
vn -1.0000 -0.0002 -0.0089
vn -0.0011 0.9936 -0.1128
vn 0.0011 -0.9935 0.1138
vn 1.0000 0.0017 0.0063
vn -1.0000 -0.0015 -0.0065
vn -0.9992 -0.0032 0.0397
vn 0.0068 0.9220 0.3871
vn -0.0072 -0.9159 -0.4014
vn 0.9997 -0.0044 -0.0239
vn -0.9990 -0.0069 0.0437
vn 0.0176 0.7921 0.6102
vn -0.0210 -0.7231 -0.6904
vn 0.9992 0.0035 -0.0401
vn 1.0000 -0.0051 -0.0044
vn 0.0006 -1.0000 -0.0017
vn 0.0004 0.9928 0.1201
vn -0.9997 0.0045 0.0238
vn -1.0000 0.0023 -0.0022
vn 1.0000 0.0002 0.0092
vn 0.0006 -0.9763 0.2166
vn -0.0008 0.9913 -0.1319
usemtl None
s off
f 19/1/1 17/2/1 4/3/1 3/4/1
f 3/4/2 4/3/2 8/5/2 7/6/2
f 28/7/3 26/8/3 6/9/3 5/10/3
f 5/10/4 6/9/4 2/11/4 1/12/4
f 25/13/5 28/7/5 5/10/5 1/14/5
f 26/8/6 27/15/6 2/16/6 6/9/6
f 34/17/7 35/18/7 10/19/7 12/20/7
f 33/21/8 36/22/8 11/23/8 9/24/8
f 36/22/9 34/17/9 12/20/9 11/23/9
f 31/25/10 29/26/10 10/27/10 9/28/10
f 18/29/11 20/30/11 16/31/11 14/32/11
f 19/33/12 18/29/12 14/32/12 15/34/12
f 20/30/13 17/35/13 13/36/13 16/31/13
f 33/37/14 35/38/14 13/39/14 15/40/14
f 8/5/15 4/41/15 17/35/15 20/30/15
f 3/42/16 7/6/16 18/29/16 19/33/16
f 7/6/17 8/5/17 20/30/17 18/29/17
f 15/40/18 13/39/18 17/2/18 19/1/18
f 25/43/19 27/44/19 23/45/19 21/46/19
f 32/47/20 29/48/20 23/49/20 22/50/20
f 31/51/21 30/52/21 24/53/21 21/54/21
f 30/52/22 32/47/22 22/50/22 24/53/22
f 1/55/23 2/56/23 27/44/23 25/43/23
f 22/50/24 23/49/24 27/15/24 26/8/24
f 21/54/25 24/53/25 28/7/25 25/13/25
f 24/53/26 22/50/26 26/8/26 28/7/26
f 11/23/27 12/20/27 32/47/27 30/52/27
f 9/24/28 11/23/28 30/52/28 31/51/28
f 12/20/29 10/19/29 29/48/29 32/47/29
f 21/46/30 23/45/30 29/26/30 31/25/30
f 9/28/31 10/27/31 35/38/31 33/37/31
f 14/32/32 16/31/32 34/17/32 36/22/32
f 15/34/33 14/32/33 36/22/33 33/21/33
f 16/31/34 13/36/34 35/18/34 34/17/34
