# Blender v2.91.2 OBJ File: ''
# www.blender.org
mtllib objtest.mtl
o Cube_Cube.001
v -1.000000 -1.000000 1.000000
v -1.000000 1.000000 1.000000
v -1.000000 -1.000000 -1.000000
v -1.000000 1.000000 -1.000000
v 1.000000 -1.000000 1.000000
v 1.000000 1.000000 1.000000
v 1.000000 -1.000000 -1.000000
v 1.000000 1.000000 -1.000000
v -1.000000 -1.000000 0.000000
v -1.000000 1.000000 0.000000
v 1.000000 -1.000000 0.000000
v 1.000000 1.000000 0.000000
v -1.000000 -1.000000 0.500000
v 1.000000 1.000000 0.500000
v -1.000000 1.000000 0.500000
v 1.000000 -1.000000 0.500000
v -1.000000 1.000000 -0.500000
v 1.000000 -1.000000 -0.500000
v -1.000000 -1.000000 -0.500000
v 1.000000 1.000000 -0.500000
v -1.000000 2.278620 1.000000
v 1.000000 2.278620 1.000000
v 1.000000 2.278620 0.500000
v -1.000000 2.278620 0.500000
v -1.000000 2.073898 -1.000000
v 1.000000 2.073898 -1.000000
v -1.000000 2.073898 -0.500000
v 1.000000 2.073898 -0.500000
v 2.693377 -1.000000 0.000000
v 2.693377 1.000000 0.000000
v 2.693377 -1.000000 -0.500000
v 2.693377 1.000000 -0.500000
vt 0.375000 0.187500
vt 0.625000 0.187500
vt 0.625000 0.250000
vt 0.375000 0.250000
vt 0.625000 0.500000
vt 0.375000 0.500000
vt 0.375000 0.687500
vt 0.625000 0.687500
vt 0.625000 0.750000
vt 0.375000 0.750000
vt 0.625000 1.000000
vt 0.375000 1.000000
vt 0.125000 0.687500
vt 0.125000 0.750000
vt 0.625000 0.687500
vt 0.625000 0.750000
vt 0.625000 0.562500
vt 0.875000 0.562500
vt 0.875000 0.625000
vt 0.625000 0.625000
vt 0.125000 0.562500
vt 0.375000 0.562500
vt 0.375000 0.625000
vt 0.125000 0.625000
vt 0.625000 0.562500
vt 0.375000 0.562500
vt 0.375000 0.062500
vt 0.625000 0.062500
vt 0.625000 0.125000
vt 0.375000 0.125000
vt 0.375000 0.000000
vt 0.625000 0.000000
vt 0.875000 0.687500
vt 0.125000 0.500000
vt 0.625000 0.187500
vt 0.625000 0.250000
vt 0.875000 0.687500
vt 0.875000 0.750000
vt 0.625000 1.000000
vt 0.625000 0.000000
vt 0.625000 0.062500
vt 0.625000 0.500000
vt 0.875000 0.500000
vt 0.875000 0.562500
vt 0.625000 0.562500
vt 0.625000 0.625000
vt 0.375000 0.625000
vn -1.0000 0.0000 0.0000
vn 0.0000 0.0000 -1.0000
vn 1.0000 0.0000 0.0000
vn 0.0000 0.0000 1.0000
vn 0.0000 -1.0000 0.0000
vn 0.0000 1.0000 0.0000
usemtl None
s off
#f 19/1/1 17/2/1 4/3/1 3/4/1
f 19/1/2 17/2/1 4/3/1 3/4/1
f 3/4/2 4/3/2 8/5/2 7/6/2
f 16/7/3 14/8/3 6/9/3 5/10/3
f 5/10/4 6/9/4 2/11/4 1/12/4
f 13/13/5 16/7/5 5/10/5 1/14/5
f 6/9/3 14/8/3 23/15/3 22/16/3
f 20/17/6 17/18/6 10/19/6 12/20/6
f 19/21/5 18/22/5 11/23/5 9/24/5
f 18/22/2 20/17/2 32/25/2 31/26/2
f 13/27/1 15/28/1 10/29/1 9/30/1
f 1/31/1 2/32/1 15/28/1 13/27/1
f 12/20/6 10/19/6 15/33/6 14/8/6
f 9/24/5 11/23/5 16/7/5 13/13/5
f 11/23/3 12/20/3 14/8/3 16/7/3
f 7/6/3 8/5/3 20/17/3 18/22/3
f 3/34/5 7/6/5 18/22/5 19/21/5
f 4/3/1 17/2/1 27/35/1 25/36/1
f 9/30/1 10/29/1 17/2/1 19/1/1
f 23/15/6 24/37/6 21/38/6 22/16/6
f 2/11/4 6/9/4 22/16/4 21/39/4
f 15/28/1 2/32/1 21/40/1 24/41/1
f 14/8/2 15/33/2 24/37/2 23/15/2
f 26/42/6 25/43/6 27/44/6 28/45/6
f 20/17/3 8/5/3 26/42/3 28/45/3
f 8/5/2 4/3/2 25/36/2 26/42/2
f 17/18/4 20/17/4 28/45/4 27/44/4
f 31/26/3 32/25/3 30/46/3 29/47/3
f 20/17/6 12/20/6 30/46/6 32/25/6
f 12/20/4 11/23/4 29/47/4 30/46/4
f 11/23/5 18/22/5 31/26/5 29/47/5
